<svg width="124" height="48" viewBox="0 0 124 48" fill="none" xmlns="http://www.w3.org/2000/svg">
<path d="M0 4C0 1.79086 1.79086 0 4 0H120C122.209 0 124 1.79086 124 4V44C124 46.2091 122.209 48 120 48H4C1.79086 48 0 46.2091 0 44V4Z" fill="#FF5A36"/>
<path d="M41.8438 30V18.5781H44.2656V28H48.8984V30H41.8438ZM56.25 30L55.7891 28.8125H55.7266C55.3255 29.3177 54.9115 29.6693 54.4844 29.8672C54.0625 30.0599 53.5104 30.1562 52.8281 30.1562C51.9896 30.1562 51.3281 29.9167 50.8438 29.4375C50.3646 28.9583 50.125 28.276 50.125 27.3906C50.125 26.4635 50.4479 25.7812 51.0938 25.3438C51.7448 24.901 52.724 24.6562 54.0312 24.6094L55.5469 24.5625V24.1797C55.5469 23.2943 55.0938 22.8516 54.1875 22.8516C53.4896 22.8516 52.6693 23.0625 51.7266 23.4844L50.9375 21.875C51.9427 21.349 53.0573 21.0859 54.2812 21.0859C55.4531 21.0859 56.3516 21.3411 56.9766 21.8516C57.6016 22.362 57.9141 23.138 57.9141 24.1797V30H56.25ZM55.5469 25.9531L54.625 25.9844C53.9323 26.0052 53.4167 26.1302 53.0781 26.3594C52.7396 26.5885 52.5703 26.9375 52.5703 27.4062C52.5703 28.0781 52.9557 28.4141 53.7266 28.4141C54.2786 28.4141 54.7188 28.2552 55.0469 27.9375C55.3802 27.6198 55.5469 27.1979 55.5469 26.6719V25.9531ZM65.2344 21.1016C66.2656 21.1016 67.0729 21.5052 67.6562 22.3125C68.2396 23.1146 68.5312 24.2161 68.5312 25.6172C68.5312 27.0599 68.2292 28.1771 67.625 28.9688C67.026 29.7604 66.2083 30.1562 65.1719 30.1562C64.1458 30.1562 63.3411 29.7839 62.7578 29.0391H62.5938L62.1953 30H60.375V17.8438H62.7578V20.6719C62.7578 21.0312 62.7266 21.6068 62.6641 22.3984H62.7578C63.3151 21.5339 64.1406 21.1016 65.2344 21.1016ZM64.4688 23.0078C63.8802 23.0078 63.4505 23.1901 63.1797 23.5547C62.9089 23.9141 62.7682 24.5104 62.7578 25.3438V25.6016C62.7578 26.5391 62.8958 27.2109 63.1719 27.6172C63.4531 28.0234 63.8958 28.2266 64.5 28.2266C64.9896 28.2266 65.3776 28.0026 65.6641 27.5547C65.9557 27.1016 66.1016 26.4453 66.1016 25.5859C66.1016 24.7266 65.9557 24.0833 65.6641 23.6562C65.3724 23.224 64.974 23.0078 64.4688 23.0078ZM74.1172 22.7969C73.612 22.7969 73.2161 22.9583 72.9297 23.2812C72.6432 23.599 72.4792 24.0521 72.4375 24.6406H75.7812C75.7708 24.0521 75.6172 23.599 75.3203 23.2812C75.0234 22.9583 74.6224 22.7969 74.1172 22.7969ZM74.4531 30.1562C73.0469 30.1562 71.9479 29.7682 71.1562 28.9922C70.3646 28.2161 69.9688 27.1172 69.9688 25.6953C69.9688 24.2318 70.3333 23.1016 71.0625 22.3047C71.7969 21.5026 72.8099 21.1016 74.1016 21.1016C75.3359 21.1016 76.2969 21.4531 76.9844 22.1562C77.6719 22.8594 78.0156 23.8307 78.0156 25.0703V26.2266H72.3828C72.4089 26.9036 72.6094 27.4323 72.9844 27.8125C73.3594 28.1927 73.8854 28.3828 74.5625 28.3828C75.0885 28.3828 75.5859 28.3281 76.0547 28.2188C76.5234 28.1094 77.013 27.9349 77.5234 27.6953V29.5391C77.1068 29.7474 76.6615 29.901 76.1875 30C75.7135 30.1042 75.1354 30.1562 74.4531 30.1562ZM82.3359 30H79.9531V17.8438H82.3359V30Z" fill="white"/>
</svg>
