<svg width="357" height="66" viewBox="0 0 357 66" fill="none" xmlns="http://www.w3.org/2000/svg">
<g filter="url(#filter0_d_0_328)">
<rect x="11" y="9" width="335" height="44" rx="10" fill="white"/>
</g>
<path fill-rule="evenodd" clip-rule="evenodd" d="M48.5 28.75C49.5544 28.75 50.4182 29.5659 50.4945 30.6007L50.5 30.75V39.25C50.5 40.3044 49.6841 41.1682 48.6493 41.2445L48.5 41.25H41.5C40.4456 41.25 39.5818 40.4341 39.5055 39.3993L39.5 39.25V30.75C39.5 29.6956 40.3159 28.8318 41.3507 28.7555L41.5 28.75H48.5ZM58.5 34.75C59.5544 34.75 60.4182 35.5659 60.4945 36.6007L60.5 36.75V39.25C60.5 40.3044 59.6841 41.1682 58.6493 41.2445L58.5 41.25H54.5C53.4456 41.25 52.5818 40.4341 52.5055 39.3993L52.5 39.25V36.75C52.5 35.6956 53.3159 34.8318 54.3507 34.7555L54.5 34.75H58.5ZM48.5 30.75H41.5V39.25H48.5V30.75ZM58.5 36.75H54.5V39.25H58.5V36.75ZM58.5 20.75C59.5544 20.75 60.4182 21.5659 60.4945 22.6007L60.5 22.75V30.75C60.5 31.8044 59.6841 32.6682 58.6493 32.7445L58.5 32.75H54.5C53.4456 32.75 52.5818 31.9341 52.5055 30.8993L52.5 30.75V22.75C52.5 21.6956 53.3159 20.8318 54.3507 20.7555L54.5 20.75H58.5ZM58.5 22.75H54.5V30.75H58.5V22.75ZM48.5 20.75C49.5544 20.75 50.4182 21.5659 50.4945 22.6007L50.5 22.75V24.75C50.5 25.8044 49.6841 26.6682 48.6493 26.7445L48.5 26.75H41.5C40.4456 26.75 39.5818 25.9341 39.5055 24.8993L39.5 24.75V22.75C39.5 21.6956 40.3159 20.8318 41.3507 20.7555L41.5 20.75H48.5ZM48.5 22.75H41.5V24.75H48.5V22.75Z" fill="#193251"/>
<path fill-rule="evenodd" clip-rule="evenodd" d="M114 33.0002C116.689 33.0002 118.882 35.1226 118.995 37.7834L119 38.0002V40.0002C119 40.5525 118.552 41.0002 118 41.0002C117.487 41.0002 117.064 40.6142 117.007 40.1169L117 40.0002V38.0002C117 36.4026 115.751 35.0966 114.176 35.0053L114 35.0002H107C105.402 35.0002 104.096 36.2492 104.005 37.824L104 38.0002V40.0002C104 40.5525 103.552 41.0002 103 41.0002C102.487 41.0002 102.064 40.6142 102.007 40.1169L102 40.0002V38.0002C102 35.3115 104.122 33.1184 106.783 33.0049L107 33.0002H114ZM122.255 33.0334C124.388 33.5964 125.895 35.508 125.995 37.7255L126 37.956V40.0002C126 40.5525 125.552 41.0002 125 41.0002C124.487 41.0002 124.064 40.6142 124.007 40.1169L124 40.0002V37.9567C123.999 36.544 123.068 35.3163 121.745 34.9671C121.211 34.8262 120.892 34.2791 121.033 33.7451C121.174 33.2111 121.721 32.8924 122.255 33.0334ZM110 21.0002C112.761 21.0002 115 23.2388 115 26.0002C115 28.7617 112.761 31.0002 110 31.0002C107.239 31.0002 105 28.7617 105 26.0002C105 23.2388 107.239 21.0002 110 21.0002ZM118.256 21.0336C120.465 21.6189 122 23.6657 122 26.0002C122 28.3348 120.465 30.3816 118.256 30.9669C117.722 31.1084 117.175 30.7903 117.033 30.2564C116.892 29.7225 117.21 29.1751 117.744 29.0336C119.066 28.6833 120 27.4376 120 26.0002C120 24.5629 119.066 23.3172 117.744 22.9669C117.21 22.8254 116.892 22.278 117.033 21.7441C117.175 21.2102 117.722 20.8921 118.256 21.0336ZM110 23.0002C108.343 23.0002 107 24.3434 107 26.0002C107 27.6571 108.343 29.0002 110 29.0002C111.657 29.0002 113 27.6571 113 26.0002C113 24.3434 111.657 23.0002 110 23.0002Z" fill="#193251"/>
<path fill-rule="evenodd" clip-rule="evenodd" d="M232.234 32.3631L232.166 32.4538C231.734 33.1022 232.193 34.0032 233.002 34.0032H240.868L240.01 40.8792C239.886 41.87 241.131 42.4105 241.77 41.6434L251.77 29.6434L251.838 29.5526C252.27 28.9042 251.811 28.0032 251.002 28.0032H243.135L243.994 21.1273C244.118 20.1364 242.873 19.596 242.234 20.3631L232.234 32.3631ZM241.586 24.2642L241.01 28.8792L241.002 28.9975C240.998 29.544 241.441 30.0032 242.002 30.0032H248.866L242.417 37.7412L242.994 33.1273L243.002 33.009C243.006 32.4625 242.563 32.0032 242.002 32.0032H235.137L241.586 24.2642Z" fill="#193251"/>
<path fill-rule="evenodd" clip-rule="evenodd" d="M313.071 20C314.669 20 315.975 21.2489 316.066 22.8237L316.071 23V39C316.071 40.5977 314.823 41.9037 313.248 41.9949L313.071 42H301.071C299.474 42 298.168 40.7511 298.077 39.1763L298.071 39L298.071 38H296.5C295.948 38 295.5 37.5523 295.5 37C295.5 36.4872 295.886 36.0645 296.383 36.0067L296.5 36H298.071V34H296.5C295.948 34 295.5 33.5523 295.5 33C295.5 32.4872 295.886 32.0645 296.383 32.0067L296.5 32H298.071V30H296.5C295.948 30 295.5 29.5523 295.5 29C295.5 28.4872 295.886 28.0645 296.383 28.0067L296.5 28H298.071V26H296.5C295.948 26 295.5 25.5523 295.5 25C295.5 24.4872 295.886 24.0645 296.383 24.0067L296.5 24H298.071L298.071 23C298.071 21.4023 299.32 20.0963 300.895 20.0051L301.071 20H313.071ZM313.071 22H301.071C300.559 22 300.136 22.386 300.078 22.8834L300.071 23L300.071 24H301.643C302.195 24 302.643 24.4477 302.643 25C302.643 25.5128 302.257 25.9355 301.759 25.9933L301.643 26H300.071V28H301.643C302.195 28 302.643 28.4477 302.643 29C302.643 29.5128 302.257 29.9355 301.759 29.9933L301.643 30H300.071V32H301.643C302.195 32 302.643 32.4477 302.643 33C302.643 33.5128 302.257 33.9355 301.759 33.9933L301.643 34H300.071V36H301.643C302.195 36 302.643 36.4477 302.643 37C302.643 37.5128 302.257 37.9355 301.759 37.9933L301.643 38H300.071L300.071 39C300.071 39.5128 300.457 39.9355 300.955 39.9933L301.071 40H313.071C313.584 40 314.007 39.614 314.065 39.1166L314.071 39V23C314.071 22.4872 313.685 22.0645 313.188 22.0067L313.071 22Z" fill="#193251"/>
<path fill-rule="evenodd" clip-rule="evenodd" d="M181.706 33.0002C184.553 33.0002 186.875 35.1226 186.995 37.7834L187 38.0002V40.0002C187 40.5525 186.526 41.0002 185.941 41.0002C185.398 41.0002 184.951 40.6142 184.889 40.1169L184.882 40.0002V38.0002C184.882 36.4026 183.56 35.0966 181.893 35.0053L181.706 35.0002H174.294C172.602 35.0002 171.22 36.2492 171.123 37.824L171.118 38.0002V40.0002C171.118 40.5525 170.644 41.0002 170.059 41.0002C169.516 41.0002 169.068 40.6142 169.007 40.1169L169 40.0002V38.0002C169 35.3115 171.247 33.1184 174.064 33.0049L174.294 33.0002H181.706ZM166.745 33.0334C167.279 32.8924 167.826 33.2111 167.967 33.7451C168.108 34.2791 167.789 34.8262 167.255 34.9671C165.99 35.3012 165.083 36.4389 165.005 37.7735L165 37.9567L165 40.0002L164.993 40.1169C164.936 40.6142 164.513 41.0002 164 41.0002C163.487 41.0002 163.064 40.6142 163.007 40.1169L163 40.0002V37.956L163.005 37.7255C163.105 35.508 164.612 33.5964 166.745 33.0334ZM189.255 33.0334C191.389 33.5964 192.895 35.508 192.995 37.7255L193 37.956V40.0002C193 40.5525 192.553 41.0002 192 41.0002C191.487 41.0002 191.065 40.6142 191.007 40.1169L191 40.0002V37.9567C190.999 36.544 190.068 35.3163 188.745 34.9671C188.211 34.8262 187.892 34.2791 188.033 33.7451C188.174 33.2111 188.721 32.8924 189.255 33.0334ZM178 21.0002C180.762 21.0002 183 23.2388 183 26.0002C183 28.7617 180.762 31.0002 178 31.0002C175.239 31.0002 173 28.7617 173 26.0002C173 23.2388 175.239 21.0002 178 21.0002ZM170.744 21.0336C171.278 20.8921 171.825 21.2102 171.967 21.7441C172.108 22.278 171.79 22.8254 171.256 22.9669C169.934 23.3172 169 24.5629 169 26.0002C169 27.4376 169.934 28.6833 171.256 29.0336C171.79 29.1751 172.108 29.7225 171.967 30.2564C171.825 30.7903 171.278 31.1084 170.744 30.9669C168.535 30.3816 167 28.3348 167 26.0002C167 23.6657 168.535 21.6189 170.744 21.0336ZM185.256 21.0336C187.465 21.6189 189 23.6657 189 26.0002C189 28.3348 187.465 30.3816 185.256 30.9669C184.723 31.1084 184.175 30.7903 184.034 30.2564C183.892 29.7225 184.21 29.1751 184.744 29.0336C186.066 28.6833 187 27.4376 187 26.0002C187 24.5629 186.066 23.3172 184.744 22.9669C184.21 22.8254 183.892 22.278 184.034 21.7441C184.175 21.2102 184.723 20.8921 185.256 21.0336ZM178 23.0002C176.343 23.0002 175 24.3434 175 26.0002C175 27.6571 176.343 29.0002 178 29.0002C179.657 29.0002 181 27.6571 181 26.0002C181 24.3434 179.657 23.0002 178 23.0002Z" fill="#193251"/>
<defs>
<filter id="filter0_d_0_328" x="0" y="0" width="357" height="66" filterUnits="userSpaceOnUse" color-interpolation-filters="sRGB">
<feFlood flood-opacity="0" result="BackgroundImageFix"/>
<feColorMatrix in="SourceAlpha" type="matrix" values="0 0 0 0 0 0 0 0 0 0 0 0 0 0 0 0 0 0 127 0" result="hardAlpha"/>
<feOffset dy="2"/>
<feGaussianBlur stdDeviation="5.5"/>
<feColorMatrix type="matrix" values="0 0 0 0 0.0966425 0 0 0 0 0.196991 0 0 0 0 0.317947 0 0 0 0.203238 0"/>
<feBlend mode="normal" in2="BackgroundImageFix" result="effect1_dropShadow_0_328"/>
<feBlend mode="normal" in="SourceGraphic" in2="effect1_dropShadow_0_328" result="shape"/>
</filter>
</defs>
</svg>
